<svg xmlns="http://www.w3.org/2000/svg" xmlns:xlink="http://www.w3.org/1999/xlink" xmlns:sketch="http://www.bohemiancoding.com/sketch/ns"><symbol id="icon-call" viewBox="0 0 15 15">
    <!-- Generator: Sketch 3.8.1 (29687) - http://www.bohemiancoding.com/sketch -->
    <title>call [#192]</title>
    <desc>Created with Sketch.</desc>
    
    <g id="Page-1" stroke="none" stroke-width="1">
        <g id="Dribbble-Light-Preview" transform="translate(-103.000000, -7321.000000)">
            <g id="icons" transform="translate(56.000000, 160.000000)">
                <path d="M61.7302966,7173.99596 C61.2672966,7175.40296 59.4532966,7176.10496 58.1572966,7175.98796 C56.3872966,7175.82796 54.4612966,7174.88896 52.9992966,7173.85496 C50.8502966,7172.33496 48.8372966,7169.98396 47.6642966,7167.48896 C46.8352966,7165.72596 46.6492966,7163.55796 47.8822966,7161.95096 C48.3382966,7161.35696 48.8312966,7161.03996 49.5722966,7161.00296 C50.6002966,7160.95296 50.7442966,7161.54096 51.0972966,7162.45696 C51.3602966,7163.14196 51.7112966,7163.84096 51.9072966,7164.55096 C52.2742966,7165.87596 50.9912966,7165.93096 50.8292966,7167.01396 C50.7282966,7167.69696 51.5562966,7168.61296 51.9302966,7169.09996 C52.6632966,7170.05396 53.5442966,7170.87696 54.5382966,7171.50296 C55.1072966,7171.86196 56.0262966,7172.50896 56.6782966,7172.15196 C57.6822966,7171.60196 57.5872966,7169.90896 58.9912966,7170.48196 C59.7182966,7170.77796 60.4222966,7171.20496 61.1162966,7171.57896 C62.1892966,7172.15596 62.1392966,7172.75396 61.7302966,7173.99596 C61.4242966,7174.92396 62.0362966,7173.06796 61.7302966,7173.99596" id="call-[#192]"/>
            </g>
        </g>
    </g>
</symbol><symbol id="icon-lock" viewBox="0 0 32 32">
    <!-- Generator: Sketch 3.0.3 (7891) - http://www.bohemiancoding.com/sketch -->
    <title>icon 119 lock rounded open</title>
    <desc>Created with Sketch.</desc>
    
    <g id="Page-1" stroke="none" stroke-width="1" sketch:type="MSPage">
        <g id="icon-119-lock-rounded-open" sketch:type="MSArtboardGroup">
            <path d="M21,23.9146472 L21,26.5089948 C21,26.7801695 21.2319336,27 21.5,27 C21.7761424,27 22,26.7721195 22,26.5089948 L22,23.9146472 C22.5825962,23.708729 23,23.1531095 23,22.5 C23,21.6715728 22.3284272,21 21.5,21 C20.6715728,21 20,21.6715728 20,22.5 C20,23.1531095 20.4174038,23.708729 21,23.9146472 L21,23.9146472 L21,23.9146472 Z M14,8.49991749 C14,6.01468168 11.9802243,4 9.5,4 C7.01471863,4 5,6.01688111 5,8.49991749 L5,10 L5,12.4991673 C5,13.3214545 4.32842712,14 3.5,14 C2.66579723,14 2,13.3280543 2,12.4991673 L2,10 L2,8.499235 C2,4.35670485 5.35786438,1 9.5,1 C13.6337072,1 17,4.35752188 17,8.499235 L17,16 L28.991212,16 C30.6544098,16 32,17.347389 32,19.0094776 L32,24 C32,28.4092877 28.4186782,32 24.0008939,32 L18.9991061,32 C14.5861677,32 11,28.418278 11,24 L11,19.0094776 C11,17.339581 12.3423335,16.0047152 14,16.0000125 L14,8.49991749 L14,8.49991749 Z" id="lock-rounded-open" sketch:type="MSShapeGroup"/>
        </g>
    </g>
</symbol><symbol id="icon-more" viewBox="0 0 64 64"><g id="Layer_51" data-name="Layer 51"><path d="M32,22.35c7.83-.25,7.83-11.6,0-11.85C24.17,10.75,24.17,22.1,32,22.35Z"/><path d="M32,26.08c-7.83.24-7.83,11.6,0,11.84C39.83,37.68,39.83,26.32,32,26.08Z"/><path d="M32,41.65c-7.83.25-7.83,11.6,0,11.85C39.83,53.25,39.83,41.9,32,41.65Z"/></g></symbol><symbol id="icon-search" viewBox="0 0 129 129">
  <g>
    <path d="M51.6,96.7c11,0,21-3.9,28.8-10.5l35,35c0.8,0.8,1.8,1.2,2.9,1.2s2.1-0.4,2.9-1.2c1.6-1.6,1.6-4.2,0-5.8l-35-35   c6.5-7.8,10.5-17.9,10.5-28.8c0-24.9-20.2-45.1-45.1-45.1C26.8,6.5,6.5,26.8,6.5,51.6C6.5,76.5,26.8,96.7,51.6,96.7z M51.6,14.7   c20.4,0,36.9,16.6,36.9,36.9C88.5,72,72,88.5,51.6,88.5c-20.4,0-36.9-16.6-36.9-36.9C14.7,31.3,31.3,14.7,51.6,14.7z"/>
  </g>
</symbol><symbol id="icon-side-bar" viewBox="0 0 24 24"><path fill="none" d="M0 0h24v24H0z"/><path d="M3 3h18a1 1 0 0 1 1 1v16a1 1 0 0 1-1 1H3a1 1 0 0 1-1-1V4a1 1 0 0 1 1-1zm5 2H4v14h4V5zm2 0v14h10V5H10z"/></symbol><symbol id="icon-unlock" viewBox="0 0 24 24"><rect x="3" y="11" width="18" height="11" rx="2" ry="2"/><path d="M7 11V7a5 5 0 019.9-1"/></symbol></svg>