<svg xmlns="http://www.w3.org/2000/svg" xmlns:xlink="http://www.w3.org/1999/xlink"><symbol id="icon-call"><path d="M14.73 12.996c-.463 1.407-2.277 2.109-3.573 1.992-1.77-.16-3.696-1.099-5.158-2.133C3.85 11.335 1.837 8.984.664 6.489-.165 4.726-.35 2.558.882.951c.456-.594.95-.911 1.69-.948C3.6-.047 3.744.541 4.097 1.457c.263.685.614 1.384.81 2.094.367 1.325-.916 1.38-1.078 2.463-.1.683.727 1.599 1.101 2.086a10.105 10.105 0 002.608 2.403c.57.359 1.488 1.006 2.14.649 1.004-.55.91-2.243 2.313-1.67.727.296 1.431.723 2.125 1.097 1.073.577 1.023 1.175.614 2.417-.306.928.306-.928 0 0"/></symbol><symbol id="icon-lock"><path d="M21 23.915v2.594a.5.5 0 001 0v-2.594a1.5 1.5 0 10-1 0zM14 8.5C14 6.015 11.98 4 9.5 4A4.501 4.501 0 005 8.5v4c0 .821-.672 1.5-1.5 1.5-.834 0-1.5-.672-1.5-1.5v-4a7.5 7.5 0 1115 0V16h11.991A3.008 3.008 0 0132 19.01V24c0 4.41-3.581 8-8 8h-5c-4.414 0-8-3.582-8-8v-4.99A3.002 3.002 0 0114 16V8.5z"/></symbol><symbol id="icon-more" viewBox="0 0 64 64"><path d="M32 22.35c7.83-.25 7.83-11.6 0-11.85-7.83.25-7.83 11.6 0 11.85zm0 3.73c-7.83.24-7.83 11.6 0 11.84 7.83-.24 7.83-11.6 0-11.84zm0 15.57c-7.83.25-7.83 11.6 0 11.85 7.83-.25 7.83-11.6 0-11.85z" data-name="Layer 51"/></symbol><symbol id="icon-search" viewBox="0 0 129 129"><path d="M51.6 96.7c11 0 21-3.9 28.8-10.5l35 35c.8.8 1.8 1.2 2.9 1.2s2.1-.4 2.9-1.2c1.6-1.6 1.6-4.2 0-5.8l-35-35c6.5-7.8 10.5-17.9 10.5-28.8 0-24.9-20.2-45.1-45.1-45.1-24.8 0-45.1 20.3-45.1 45.1 0 24.9 20.3 45.1 45.1 45.1zm0-82c20.4 0 36.9 16.6 36.9 36.9C88.5 72 72 88.5 51.6 88.5S14.7 71.9 14.7 51.6c0-20.3 16.6-36.9 36.9-36.9z"/></symbol><symbol id="icon-side-bar"><path fill="none" d="M0 0h24v24H0z"/><path d="M3 3h18a1 1 0 011 1v16a1 1 0 01-1 1H3a1 1 0 01-1-1V4a1 1 0 011-1zm5 2H4v14h4V5zm2 0v14h10V5H10z"/></symbol></svg>