<svg width="24" height="24" fill="none" xmlns="http://www.w3.org/2000/svg"><g clip-path="url(#clip0)"><path fill-rule="evenodd" clip-rule="evenodd" d="M3.243 11.02a1 1 0 010-1.413l7.07-7.071a7 7 0 119.9 9.899l-9.192 9.192a5 5 0 01-7.071-7.07l7.778-7.779a3 3 0 014.242 4.243l-5.656 5.657a1 1 0 11-1.415-1.415l5.657-5.656a1 1 0 00-1.414-1.415L5.364 15.97a3 3 0 004.243 4.243l9.192-9.192a5 5 0 00-7.071-7.071l-7.071 7.07a1 1 0 01-1.414 0z" fill="#293644"/></g><defs><clipPath id="clip0"><path fill="#fff" d="M0 0h24v24H0z"/></clipPath></defs></svg>