<svg version="1.1" id="Layer_1" xmlns="http://www.w3.org/2000/svg" x="0" y="0" viewBox="0 0 62.4 62.4" xml:space="preserve"><style>.st0{fill:#191919}</style><path class="st0" d="M31.2 61.5C14.5 61.5.9 47.9.9 31.2S14.5.8 31.2.8c16.7 0 30.3 13.6 30.3 30.3S47.9 61.5 31.2 61.5zm0-56.7C16.7 4.8 4.8 16.7 4.8 31.2s11.8 26.3 26.3 26.3 26.3-11.8 26.3-26.3S45.7 4.8 31.2 4.8z"/><path class="st0" d="M31.7 47.9h-.5c-10.1 0-14.7-7.5-15.6-11.4-.3-1.1.4-2.2 1.5-2.4 1.1-.3 2.2.4 2.4 1.5.1.3 2.3 8.4 11.8 8.4h.5c9.5 0 11.7-8 11.8-8.4.3-1.1 1.4-1.7 2.4-1.4 1.1.3 1.7 1.3 1.5 2.4-1.2 3.9-5.7 11.3-15.8 11.3z"/><circle class="st0" cx="20.7" cy="25.3" r="3.5"/><circle class="st0" cx="41.4" cy="25.3" r="3.5"/></svg>